<svg width="128" height="128" viewBox="0 0 128 128" fill="none" xmlns="http://www.w3.org/2000/svg">
<rect width="128" height="128" fill="#E1F0FF"/>
<path d="M50.051 95.1835C51.01 95.7907 52.2847 95.3894 52.723 94.3424L59.0615 79.2004C59.4296 78.3209 59.0623 77.3061 58.2165 76.866L32.9673 63.7282L58.3523 51.3332C59.7079 50.6713 60.2772 49.0408 59.6283 47.6789L53.288 34.3722C52.5928 32.913 50.7949 32.3652 49.404 33.1888L16.0068 52.9648L15.137 73.0782L50.051 95.1835Z" fill="#1E1BD6"/>
<path d="M50.0509 95.1835C51.01 95.7906 52.2847 95.3894 52.723 94.3423L59.0615 79.2003C59.4296 78.3209 59.0623 77.306 58.2165 76.8659L32.9673 63.7281L15.137 73.0782L50.0509 95.1835Z" fill="#189FFB"/>
<path d="M77.949 95.1835C76.99 95.7907 75.7153 95.3894 75.277 94.3424L68.9385 79.2004C68.5704 78.3209 68.9377 77.3061 69.7835 76.866L95.0327 63.7282L69.6477 51.3332C68.2921 50.6713 67.7228 49.0408 68.3717 47.6789L74.712 34.3722C75.4072 32.913 77.2051 32.3652 78.596 33.1888L111.993 52.9648L112.863 73.0782L77.949 95.1835Z" fill="#189FFB"/>
<path d="M77.949 95.1835C76.99 95.7906 75.7153 95.3894 75.277 94.3423L68.9385 79.2003C68.5704 78.3209 68.9377 77.306 69.7835 76.8659L95.0327 63.7281L112.863 73.0782L77.949 95.1835Z" fill="#1E1BD6"/>
</svg>
